<?xml version="1.0" encoding="UTF-8" standalone="no" ?>
<!DOCTYPE svg PUBLIC "-//W3C//DTD SVG 1.1//EN" "http://www.w3.org/Graphics/SVG/1.1/DTD/svg11.dtd">
<svg xmlns="http://www.w3.org/2000/svg" xmlns:xlink="http://www.w3.org/1999/xlink" version="1.1" width="1280" height="1024" viewBox="0 0 1280 1024" xml:space="preserve">
<desc>Created with Fabric.js 5.3.0</desc>
<defs>
</defs>
<g transform="matrix(1 0 0 1 640 512)" id="background-logo"  >
<rect style="stroke: none; stroke-width: 0; stroke-dasharray: none; stroke-linecap: butt; stroke-dashoffset: 0; stroke-linejoin: miter; stroke-miterlimit: 4; fill: rgb(255,255,255); fill-opacity: 0; fill-rule: nonzero; opacity: 1;"  paint-order="stroke"  x="-640" y="-512" rx="0" ry="0" width="1280" height="1024" />
</g>
<g transform="matrix(1.9211538461538462 0 0 1.9211538461538462 639.9999999999999 464.1903109388327)" id="logo-logo"  >
<g style=""  paint-order="stroke"   >
		<g transform="matrix(2.705470061628991 0 0 2.37990681237626 0 0)"  >
<g style=""  paint-order="stroke"   >
		<g transform="matrix(1 0 0 1 0 0)"  >
<linearGradient id="SVGID_52738_462095" gradientUnits="userSpaceOnUse" gradientTransform="matrix(1 0 0 1 0 0)"  x1="0" y1="0" x2="0" y2="36">
<stop offset="0%" style="stop-color:rgb(23,234,217);stop-opacity: 1"/>
<stop offset="100%" style="stop-color:rgb(96,120,234);stop-opacity: 1"/>
</linearGradient>
<path style="stroke: none; stroke-width: 1; stroke-dasharray: none; stroke-linecap: butt; stroke-dashoffset: 0; stroke-linejoin: miter; stroke-miterlimit: 4; fill: url(#SVGID_52738_462095); fill-rule: nonzero; opacity: 1;"  paint-order="stroke"  transform=" translate(-100, -17.5)" d="M 187.1 4 L 195.4 17.5 L 187.1 31 L 12.9 31 L 4.7 17.5 L 12.9 4 L 187.1 4 M 189.3 0 L 10.7 0 L 0 17.5 L 10.7 35 L 189.29999999999998 35 L 200 17.5 L 189.3 0 L 189.3 0 z" stroke-linecap="round" />
</g>
</g>
</g>
</g>
</g>
<g transform="matrix(1.9211538461538462 0 0 1.9211538461538462 640.0168100961538 467.53970996657836)" id="text-logo"  >
<g style=""  paint-order="stroke"   >
		<g transform="matrix(1 0 0 1 0 0)" id="text-logo-path-0"  >
<linearGradient id="SVGID_462096" gradientUnits="userSpaceOnUse" gradientTransform="matrix(1 0 0 1 1.4000000000000057 -24.5)"  x1="-1.3999999999999488" y1="-6.2698999999999785" x2="-1.3999999999999488" y2="33.73010000000002">
<stop offset="0%" style="stop-color:rgb(23,234,217);stop-opacity: 1"/>
<stop offset="100%" style="stop-color:rgb(96,120,234);stop-opacity: 1"/>
</linearGradient>
<path style="stroke: none; stroke-width: 0.42300618781693083; stroke-dasharray: none; stroke-linecap: butt; stroke-dashoffset: 0; stroke-linejoin: miter; stroke-miterlimit: 4; fill: url(#SVGID_462096); fill-rule: nonzero; opacity: 1;"  paint-order="stroke"  transform=" translate(-227.99, 12.23)" d="M 1.4 -17.05 L 1.4 -9.8 L 6.3 -9.8 L 6.3 -17.05 C 6.3 -18.9 7 -19.6 8.86 -19.6 L 14.25 -19.6 C 16.1 -19.6 16.8 -18.9 16.8 -17.05 L 16.8 -7.46 C 16.8 -5.6 16.1 -4.9 14.25 -4.9 L 8.86 -4.9 C 7 -4.9 6.3 -5.6 6.3 -7.46 L 6.3 -8.05 L 1.4 -8.05 L 1.4 -7.46 C 1.4 -3.22 4.62 0 8.86 0 L 14.25 0 C 18.48 0 21.7 -3.22 21.7 -7.46 L 21.7 -17.05 C 21.7 -21.28 18.48 -24.5 14.25 -24.5 L 8.86 -24.5 C 4.62 -24.5 1.4 -21.28 1.4 -17.05 Z M 37.34 -24.5 L 24.5 -24.5 L 24.5 -9.8 L 37.34 -9.8 C 41.55 -9.8 44.8 -12.88 44.8 -17.05 C 44.8 -21.28 41.58 -24.5 37.34 -24.5 Z M 24.5 -8.05 L 24.5 0 L 29.4 0 L 29.4 -8.05 Z M 37.34 -14.7 L 29.4 -14.7 L 29.4 -19.6 L 37.34 -19.6 C 39.2 -19.6 39.9 -18.9 39.9 -17.05 C 39.9 -15.33 39.23 -14.7 37.34 -14.7 Z M 55.06 0.04 L 67.9 0.04 L 67.9 -4.87 L 55.06 -4.87 C 53.2 -4.87 52.5 -5.57 52.5 -7.42 L 52.5 -8.05 L 47.6 -8.05 L 47.6 -7.42 C 47.6 -3.19 50.82 0.04 55.06 0.04 Z M 47.6 -24.5 L 47.6 -9.8 L 65.45 -9.8 L 65.45 -14.7 L 52.5 -14.7 L 52.5 -19.6 L 67.9 -19.6 L 67.9 -24.5 Z M 70.7 0 L 75.6 0 L 75.6 -8.05 L 70.7 -8.05 Z M 70.7 -17.05 L 70.7 -9.8 L 75.6 -9.8 L 75.6 -17.05 C 75.6 -18.9 76.3 -19.6 78.16 -19.6 L 83.55 -19.6 C 85.4 -19.6 86.1 -18.9 86.1 -17.05 L 86.1 0 L 91 0 L 91 -17.05 C 91 -21.28 87.78 -24.5 83.55 -24.5 L 78.16 -24.5 C 73.92 -24.5 70.7 -21.28 70.7 -17.05 Z M 93.8 0 L 98.7 0 L 98.7 -8.05 L 93.8 -8.05 Z M 93.8 -17.05 L 93.8 -9.8 L 98.7 -9.8 L 98.7 -17.05 C 98.7 -18.9 99.4 -19.6 101.26 -19.6 L 106.65 -19.6 C 108.5 -19.6 109.2 -18.9 109.2 -17.05 L 109.2 0 L 114.1 0 L 114.1 -17.05 C 114.1 -21.28 110.88 -24.5 106.65 -24.5 L 101.26 -24.5 C 97.02 -24.5 93.8 -21.28 93.8 -17.05 Z M 124.36 0.04 L 137.2 0.04 L 137.2 -4.87 L 124.36 -4.87 C 122.5 -4.87 121.8 -5.57 121.8 -7.42 L 121.8 -8.05 L 116.9 -8.05 L 116.9 -7.42 C 116.9 -3.19 120.12 0.04 124.36 0.04 Z M 116.9 -24.5 L 116.9 -9.8 L 134.75 -9.8 L 134.75 -14.7 L 121.8 -14.7 L 121.8 -19.6 L 137.2 -19.6 L 137.2 -24.5 Z M 152.95 -17.85 L 148.05 -17.85 L 148.05 0 L 152.95 0 Z M 140 -24.5 L 140 -19.6 L 161 -19.6 L 161 -24.5 Z M 175.7 -8.05 L 170.8 -8.05 L 170.8 0 L 183.65 0 C 187.88 0 191.1 -3.22 191.1 -7.46 L 191.1 -17.05 C 191.1 -21.28 187.88 -24.5 183.65 -24.5 L 170.8 -24.5 L 170.8 -9.8 L 175.7 -9.8 L 175.7 -19.6 L 183.65 -19.6 C 185.5 -19.6 186.2 -18.9 186.2 -17.05 L 186.2 -7.46 C 186.2 -5.6 185.5 -4.9 183.65 -4.9 L 175.7 -4.9 Z M 201.35 0.04 L 214.2 0.04 L 214.2 -4.87 L 201.35 -4.87 C 199.5 -4.87 198.8 -5.57 198.8 -7.42 L 198.8 -8.05 L 193.9 -8.05 L 193.9 -7.42 C 193.9 -3.19 197.12 0.04 201.35 0.04 Z M 193.9 -24.5 L 193.9 -9.8 L 211.75 -9.8 L 211.75 -14.7 L 198.8 -14.7 L 198.8 -19.6 L 214.2 -19.6 L 214.2 -24.5 Z M 232.4 -17.05 L 232.4 -16.45 L 237.3 -16.45 L 237.3 -17.05 C 237.3 -21.28 234.08 -24.5 229.84 -24.5 L 224.45 -24.5 C 220.22 -24.5 217 -21.28 217 -17.05 L 217 -7.46 C 217 -3.22 220.22 0 224.45 0 L 229.84 0 C 234.08 0 237.3 -3.22 237.3 -7.46 L 237.3 -8.09 L 232.4 -8.09 L 232.4 -7.46 C 232.4 -5.6 231.7 -4.9 229.84 -4.9 L 224.45 -4.9 C 222.6 -4.9 221.9 -5.6 221.9 -7.46 L 221.9 -17.05 C 221.9 -18.9 222.6 -19.6 224.45 -19.6 L 229.84 -19.6 C 231.7 -19.6 232.4 -18.9 232.4 -17.05 Z M 247.55 0.04 L 260.4 0.04 L 260.4 -4.87 L 247.55 -4.87 C 245.7 -4.87 245 -5.57 245 -7.42 L 245 -8.05 L 240.1 -8.05 L 240.1 -7.42 C 240.1 -3.19 243.32 0.04 247.55 0.04 Z M 240.1 -24.5 L 240.1 -9.8 L 257.95 -9.8 L 257.95 -14.7 L 245 -14.7 L 245 -19.6 L 260.4 -19.6 L 260.4 -24.5 Z M 263.2 0 L 268.1 0 L 268.1 -8.05 L 263.2 -8.05 Z M 263.2 -17.05 L 263.2 -9.8 L 268.1 -9.8 L 268.1 -17.05 C 268.1 -18.9 268.8 -19.6 270.66 -19.6 L 276.05 -19.6 C 277.9 -19.6 278.6 -18.9 278.6 -17.05 L 278.6 0 L 283.5 0 L 283.5 -17.05 C 283.5 -21.28 280.28 -24.5 276.05 -24.5 L 270.66 -24.5 C 266.42 -24.5 263.2 -21.28 263.2 -17.05 Z M 299.25 -17.85 L 294.35 -17.85 L 294.35 0 L 299.25 0 Z M 286.3 -24.5 L 286.3 -19.6 L 307.3 -19.6 L 307.3 -24.5 Z M 322.95 -24.5 L 310.1 -24.5 L 310.1 -9.8 L 322.95 -9.8 C 324.8 -9.8 325.5 -9.1 325.5 -7.25 L 325.5 0 L 330.4 0 L 330.4 -7.25 C 330.4 -9.17 329.74 -10.92 328.58 -12.22 C 329.74 -13.48 330.4 -15.16 330.4 -17.05 C 330.4 -21.28 327.18 -24.5 322.95 -24.5 Z M 310.1 -8.05 L 310.1 0 L 315 0 L 315 -8.05 Z M 322.95 -14.7 L 315 -14.7 L 315 -19.6 L 322.95 -19.6 C 324.8 -19.6 325.5 -18.9 325.5 -17.05 C 325.5 -15.33 324.84 -14.7 322.95 -14.7 Z M 348.6 0 L 353.5 0 L 353.5 -17.05 C 353.5 -21.28 350.28 -24.5 346.05 -24.5 L 340.66 -24.5 C 336.42 -24.5 333.2 -21.28 333.2 -17.05 L 333.2 0 L 338.1 0 L 338.1 -17.05 C 338.1 -18.9 338.8 -19.6 340.66 -19.6 L 346.05 -19.6 C 347.9 -19.6 348.6 -18.9 348.6 -17.05 L 348.6 -14.7 L 339.85 -14.7 L 339.85 -9.8 L 348.6 -9.8 Z M 363.76 0 L 376.6 0 L 376.6 -4.9 L 363.76 -4.9 C 361.9 -4.9 361.2 -5.6 361.2 -7.46 L 361.2 -24.5 L 356.3 -24.5 L 356.3 -7.46 C 356.3 -3.22 359.52 0 363.76 0 Z M 384.3 -24.5 L 379.4 -24.5 L 379.4 0 L 384.3 0 Z M 390.6 0 L 407.4 0 L 407.4 -4.9 L 394 -4.9 L 407.33 -18.59 C 409.54 -20.79 408.03 -24.5 404.88 -24.5 L 388.08 -24.5 L 388.08 -19.6 L 401.49 -19.6 L 388.15 -5.92 C 385.95 -3.71 387.45 0 390.6 0 Z M 418.64 0.04 L 431.48 0.04 L 431.48 -4.87 L 418.64 -4.87 C 416.78 -4.87 416.08 -5.57 416.08 -7.42 L 416.08 -8.05 L 411.18 -8.05 L 411.18 -7.42 C 411.18 -3.19 414.4 0.04 418.64 0.04 Z M 411.18 -24.5 L 411.18 -9.8 L 429.03 -9.8 L 429.03 -14.7 L 416.08 -14.7 L 416.08 -19.6 L 431.48 -19.6 L 431.48 -24.5 Z M 439.18 -8.05 L 434.28 -8.05 L 434.28 0 L 447.13 0 C 451.36 0 454.58 -3.22 454.58 -7.46 L 454.58 -17.05 C 454.58 -21.28 451.36 -24.5 447.13 -24.5 L 434.28 -24.5 L 434.28 -9.8 L 439.18 -9.8 L 439.18 -19.6 L 447.13 -19.6 C 448.98 -19.6 449.68 -18.9 449.68 -17.05 L 449.68 -7.46 C 449.68 -5.6 448.98 -4.9 447.13 -4.9 L 439.18 -4.9 Z" stroke-linecap="round" />
</g>
</g>
</g>
<g transform="matrix(1.9211538461538462 0 0 1.9211538461538462 640.0000000000005 597.1474086137981)" id="tagline-b72074bb-72b3-44de-b0e3-c1fdcb307b46-logo"  >
<g style=""  paint-order="stroke"   >
		<g transform="matrix(1 0 0 1 0 0)" id="tagline-b72074bb-72b3-44de-b0e3-c1fdcb307b46-logo-path-0"  >
<path style="stroke: none; stroke-width: 0; stroke-dasharray: none; stroke-linecap: butt; stroke-dashoffset: 0; stroke-linejoin: miter; stroke-miterlimit: 4; fill: rgb(90,131,233); fill-rule: nonzero; opacity: 1;"  paint-order="stroke"  transform=" translate(-238.49999999999997, 12.93)" d="M 6.66 -25.9 L 1.48 -25.9 L 1.48 0 L 6.66 0 Z M 15.43 0 L 20.61 0 L 20.61 -8.51 L 15.43 -8.51 Z M 15.43 -18.02 L 15.43 -10.36 L 20.61 -10.36 L 20.61 -18.02 C 20.61 -19.98 21.35 -20.72 23.31 -20.72 L 29.01 -20.72 C 30.97 -20.72 31.71 -19.98 31.71 -18.02 L 31.71 0 L 36.89 0 L 36.89 -18.02 C 36.89 -22.5 33.48 -25.9 29.01 -25.9 L 23.31 -25.9 C 18.83 -25.9 15.43 -22.5 15.43 -18.02 Z M 59.35 -18.87 L 54.17 -18.87 L 54.17 0 L 59.35 0 Z M 45.66 -25.9 L 45.66 -20.72 L 67.86 -20.72 L 67.86 -25.9 Z M 84.51 0.04 L 98.09 0.04 L 98.09 -5.14 L 84.51 -5.14 C 82.55 -5.14 81.81 -5.88 81.81 -7.84 L 81.81 -8.51 L 76.63 -8.51 L 76.63 -7.84 C 76.63 -3.37 80.03 0.04 84.51 0.04 Z M 76.63 -25.9 L 76.63 -10.36 L 95.5 -10.36 L 95.5 -15.54 L 81.81 -15.54 L 81.81 -20.72 L 98.09 -20.72 L 98.09 -25.9 Z M 120.43 -25.9 L 106.86 -25.9 L 106.86 -10.36 L 120.43 -10.36 C 122.4 -10.36 123.14 -9.62 123.14 -7.66 L 123.14 0 L 128.32 0 L 128.32 -7.66 C 128.32 -9.69 127.61 -11.54 126.39 -12.91 C 127.61 -14.24 128.32 -16.02 128.32 -18.02 C 128.32 -22.5 124.91 -25.9 120.43 -25.9 Z M 106.86 -8.51 L 106.86 0 L 112.04 0 L 112.04 -8.51 Z M 120.43 -15.54 L 112.04 -15.54 L 112.04 -20.72 L 120.43 -20.72 C 122.4 -20.72 123.14 -19.98 123.14 -18.02 C 123.14 -16.21 122.43 -15.54 120.43 -15.54 Z M 137.08 0 L 142.26 0 L 142.26 -8.51 L 137.08 -8.51 Z M 137.08 -18.02 L 137.08 -10.36 L 142.26 -10.36 L 142.26 -18.02 C 142.26 -19.98 143 -20.72 144.97 -20.72 L 150.66 -20.72 C 152.63 -20.72 153.36 -19.98 153.36 -18.02 L 153.36 0 L 158.54 0 L 158.54 -18.02 C 158.54 -22.5 155.14 -25.9 150.66 -25.9 L 144.97 -25.9 C 140.49 -25.9 137.08 -22.5 137.08 -18.02 Z M 175.19 0.04 L 188.77 0.04 L 188.77 -5.14 L 175.19 -5.14 C 173.23 -5.14 172.49 -5.88 172.49 -7.84 L 172.49 -8.51 L 167.31 -8.51 L 167.31 -7.84 C 167.31 -3.37 170.72 0.04 175.19 0.04 Z M 167.31 -25.9 L 167.31 -10.36 L 186.18 -10.36 L 186.18 -15.54 L 172.49 -15.54 L 172.49 -20.72 L 188.77 -20.72 L 188.77 -25.9 Z M 211.23 -18.87 L 206.05 -18.87 L 206.05 0 L 211.23 0 Z M 197.54 -25.9 L 197.54 -20.72 L 219.74 -20.72 L 219.74 -25.9 Z M 255.3 -25.9 L 241.72 -25.9 L 241.72 -10.36 L 255.3 -10.36 C 259.74 -10.36 263.18 -13.62 263.18 -18.02 C 263.18 -22.5 259.78 -25.9 255.3 -25.9 Z M 241.72 -8.51 L 241.72 0 L 246.9 0 L 246.9 -8.51 Z M 255.3 -15.54 L 246.9 -15.54 L 246.9 -20.72 L 255.3 -20.72 C 257.26 -20.72 258 -19.98 258 -18.02 C 258 -16.21 257.3 -15.54 255.3 -15.54 Z M 285.53 -25.9 L 271.95 -25.9 L 271.95 -10.36 L 285.53 -10.36 C 287.49 -10.36 288.23 -9.62 288.23 -7.66 L 288.23 0 L 293.41 0 L 293.41 -7.66 C 293.41 -9.69 292.71 -11.54 291.49 -12.91 C 292.71 -14.24 293.41 -16.02 293.41 -18.02 C 293.41 -22.5 290.01 -25.9 285.53 -25.9 Z M 271.95 -8.51 L 271.95 0 L 277.13 0 L 277.13 -8.51 Z M 285.53 -15.54 L 277.13 -15.54 L 277.13 -20.72 L 285.53 -20.72 C 287.49 -20.72 288.23 -19.98 288.23 -18.02 C 288.23 -16.21 287.53 -15.54 285.53 -15.54 Z M 302.18 -18.02 L 302.18 -10.36 L 307.36 -10.36 L 307.36 -18.02 C 307.36 -19.98 308.1 -20.72 310.06 -20.72 L 315.76 -20.72 C 317.72 -20.72 318.46 -19.98 318.46 -18.02 L 318.46 -7.88 C 318.46 -5.92 317.72 -5.18 315.76 -5.18 L 310.06 -5.18 C 308.1 -5.18 307.36 -5.92 307.36 -7.88 L 307.36 -8.51 L 302.18 -8.51 L 302.18 -7.88 C 302.18 -3.4 305.58 0 310.06 0 L 315.76 0 C 320.24 0 323.64 -3.4 323.64 -7.88 L 323.64 -18.02 C 323.64 -22.5 320.24 -25.9 315.76 -25.9 L 310.06 -25.9 C 305.58 -25.9 302.18 -22.5 302.18 -18.02 Z M 346.1 -18.87 L 340.92 -18.87 L 340.92 0 L 346.1 0 Z M 332.41 -25.9 L 332.41 -20.72 L 354.61 -20.72 L 354.61 -25.9 Z M 363.38 -18.02 L 363.38 -10.36 L 368.56 -10.36 L 368.56 -18.02 C 368.56 -19.98 369.3 -20.72 371.26 -20.72 L 376.96 -20.72 C 378.92 -20.72 379.66 -19.98 379.66 -18.02 L 379.66 -7.88 C 379.66 -5.92 378.92 -5.18 376.96 -5.18 L 371.26 -5.18 C 369.3 -5.18 368.56 -5.92 368.56 -7.88 L 368.56 -8.51 L 363.38 -8.51 L 363.38 -7.88 C 363.38 -3.4 366.78 0 371.26 0 L 376.96 0 C 381.43 0 384.84 -3.4 384.84 -7.88 L 384.84 -18.02 C 384.84 -22.5 381.43 -25.9 376.96 -25.9 L 371.26 -25.9 C 366.78 -25.9 363.38 -22.5 363.38 -18.02 Z M 409.89 -18.02 L 409.89 -17.39 L 415.07 -17.39 L 415.07 -18.02 C 415.07 -22.5 411.66 -25.9 407.19 -25.9 L 401.49 -25.9 C 397.01 -25.9 393.61 -22.5 393.61 -18.02 L 393.61 -7.88 C 393.61 -3.4 397.01 0 401.49 0 L 407.19 0 C 411.66 0 415.07 -3.4 415.07 -7.88 L 415.07 -8.55 L 409.89 -8.55 L 409.89 -7.88 C 409.89 -5.92 409.15 -5.18 407.19 -5.18 L 401.49 -5.18 C 399.53 -5.18 398.79 -5.92 398.79 -7.88 L 398.79 -18.02 C 398.79 -19.98 399.53 -20.72 401.49 -20.72 L 407.19 -20.72 C 409.15 -20.72 409.89 -19.98 409.89 -18.02 Z M 423.84 -18.02 L 423.84 -10.36 L 429.02 -10.36 L 429.02 -18.02 C 429.02 -19.98 429.76 -20.72 431.72 -20.72 L 437.41 -20.72 C 439.38 -20.72 440.12 -19.98 440.12 -18.02 L 440.12 -7.88 C 440.12 -5.92 439.38 -5.18 437.41 -5.18 L 431.72 -5.18 C 429.76 -5.18 429.02 -5.92 429.02 -7.88 L 429.02 -8.51 L 423.84 -8.51 L 423.84 -7.88 C 423.84 -3.4 427.24 0 431.72 0 L 437.41 0 C 441.89 0 445.3 -3.4 445.3 -7.88 L 445.3 -18.02 C 445.3 -22.5 441.89 -25.9 437.41 -25.9 L 431.72 -25.9 C 427.24 -25.9 423.84 -22.5 423.84 -18.02 Z M 461.95 0 L 475.52 0 L 475.52 -5.18 L 461.95 -5.18 C 459.98 -5.18 459.24 -5.92 459.24 -7.88 L 459.24 -25.9 L 454.06 -25.9 L 454.06 -7.88 C 454.06 -3.4 457.47 0 461.95 0 Z" stroke-linecap="round" />
</g>
</g>
</g>
</svg>